<mxfile host="app.diagrams.net" modified="2021-01-26T06:44:29.484Z" agent="5.0 (Windows NT 10.0; Win64; x64) AppleWebKit/537.36 (KHTML, like Gecko) Chrome/87.0.4280.141 Safari/537.36" etag="oxrYlaw6g9VZw7VNNoyP" version="14.2.7" type="github">
  <diagram name="Page-1" id="5f0bae14-7c28-e335-631c-24af17079c00">
    <mxGraphModel dx="677" dy="363" grid="1" gridSize="10" guides="1" tooltips="1" connect="1" arrows="1" fold="1" page="1" pageScale="1" pageWidth="1100" pageHeight="850" background="#ffffff" math="0" shadow="0">
      <root>
        <mxCell id="0" />
        <mxCell id="1" parent="0" />
        <mxCell id="kNBSfC1miVcVeduLypt6-1" value="黑鲨运营平台" style="rounded=0;whiteSpace=wrap;html=1;" vertex="1" parent="1">
          <mxGeometry x="160" y="240" width="120" height="60" as="geometry" />
        </mxCell>
        <mxCell id="kNBSfC1miVcVeduLypt6-2" value="后台服务" style="rounded=0;whiteSpace=wrap;html=1;" vertex="1" parent="1">
          <mxGeometry x="320" y="80" width="120" height="60" as="geometry" />
        </mxCell>
        <mxCell id="kNBSfC1miVcVeduLypt6-3" value="DB" style="shape=cylinder3;whiteSpace=wrap;html=1;boundedLbl=1;backgroundOutline=1;size=15;" vertex="1" parent="1">
          <mxGeometry x="520" y="70" width="60" height="80" as="geometry" />
        </mxCell>
        <mxCell id="kNBSfC1miVcVeduLypt6-4" value="发现好游戏 App" style="rounded=0;whiteSpace=wrap;html=1;" vertex="1" parent="1">
          <mxGeometry x="480" y="240" width="120" height="60" as="geometry" />
        </mxCell>
        <mxCell id="kNBSfC1miVcVeduLypt6-5" value="" style="endArrow=classic;html=1;exitX=0;exitY=0.25;exitDx=0;exitDy=0;entryX=0.152;entryY=0.013;entryDx=0;entryDy=0;entryPerimeter=0;" edge="1" parent="1" source="kNBSfC1miVcVeduLypt6-2" target="kNBSfC1miVcVeduLypt6-1">
          <mxGeometry width="50" height="50" relative="1" as="geometry">
            <mxPoint x="220" y="180" as="sourcePoint" />
            <mxPoint x="270" y="130" as="targetPoint" />
          </mxGeometry>
        </mxCell>
        <mxCell id="kNBSfC1miVcVeduLypt6-6" value="拉取运营配置信息" style="text;html=1;align=center;verticalAlign=middle;resizable=0;points=[];autosize=1;rotation=315;" vertex="1" parent="1">
          <mxGeometry x="179" y="149" width="110" height="20" as="geometry" />
        </mxCell>
        <mxCell id="kNBSfC1miVcVeduLypt6-15" value="" style="endArrow=classic;startArrow=classic;html=1;" edge="1" parent="1" source="kNBSfC1miVcVeduLypt6-2">
          <mxGeometry width="50" height="50" relative="1" as="geometry">
            <mxPoint x="470" y="160" as="sourcePoint" />
            <mxPoint x="520" y="110" as="targetPoint" />
          </mxGeometry>
        </mxCell>
        <mxCell id="kNBSfC1miVcVeduLypt6-16" value="" style="endArrow=classic;html=1;entryX=0.009;entryY=0.807;entryDx=0;entryDy=0;entryPerimeter=0;exitX=0.45;exitY=-0.018;exitDx=0;exitDy=0;exitPerimeter=0;" edge="1" parent="1" source="kNBSfC1miVcVeduLypt6-1" target="kNBSfC1miVcVeduLypt6-2">
          <mxGeometry width="50" height="50" relative="1" as="geometry">
            <mxPoint x="220" y="240" as="sourcePoint" />
            <mxPoint x="270" y="190" as="targetPoint" />
          </mxGeometry>
        </mxCell>
        <mxCell id="kNBSfC1miVcVeduLypt6-17" value="上传新建元素和合辑信息" style="text;html=1;align=center;verticalAlign=middle;resizable=0;points=[];autosize=1;rotation=-45;" vertex="1" parent="1">
          <mxGeometry x="201" y="178" width="150" height="20" as="geometry" />
        </mxCell>
        <mxCell id="kNBSfC1miVcVeduLypt6-18" value="" style="endArrow=classic;html=1;" edge="1" parent="1" source="kNBSfC1miVcVeduLypt6-2" target="kNBSfC1miVcVeduLypt6-4">
          <mxGeometry width="50" height="50" relative="1" as="geometry">
            <mxPoint x="420" y="240" as="sourcePoint" />
            <mxPoint x="470" y="190" as="targetPoint" />
          </mxGeometry>
        </mxCell>
        <mxCell id="kNBSfC1miVcVeduLypt6-19" value="获取模块合辑信息" style="text;html=1;align=center;verticalAlign=middle;resizable=0;points=[];autosize=1;rotation=45;" vertex="1" parent="1">
          <mxGeometry x="395" y="180" width="110" height="20" as="geometry" />
        </mxCell>
      </root>
    </mxGraphModel>
  </diagram>
</mxfile>
